<mxfile host="app.diagrams.net" modified="2023-12-31T11:12:28.601Z" agent="Mozilla/5.0 (Windows NT 10.0; Win64; x64) AppleWebKit/537.36 (KHTML, like Gecko) Chrome/120.0.0.0 Safari/537.36" etag="kfA6lR14eRxuyl8OiGaV" version="22.1.16" type="github">
  <diagram name="第 1 页" id="gztn4_UvSU2KrBi2okDy">
    <mxGraphModel dx="1050" dy="522" grid="1" gridSize="10" guides="1" tooltips="1" connect="1" arrows="1" fold="1" page="1" pageScale="1" pageWidth="827" pageHeight="1169" math="0" shadow="0">
      <root>
        <mxCell id="0" />
        <mxCell id="1" parent="0" />
        <mxCell id="P84AbzklIG5w7HBDhzj1-2" value="" style="whiteSpace=wrap;html=1;aspect=fixed;" vertex="1" parent="1">
          <mxGeometry x="215" y="40" width="410" height="410" as="geometry" />
        </mxCell>
        <mxCell id="P84AbzklIG5w7HBDhzj1-3" value="登錄" style="ellipse;whiteSpace=wrap;html=1;" vertex="1" parent="1">
          <mxGeometry x="375" y="50" width="90" height="60" as="geometry" />
        </mxCell>
        <mxCell id="P84AbzklIG5w7HBDhzj1-4" value="查詢車票信息" style="ellipse;whiteSpace=wrap;html=1;" vertex="1" parent="1">
          <mxGeometry x="375" y="120" width="90" height="60" as="geometry" />
        </mxCell>
        <mxCell id="P84AbzklIG5w7HBDhzj1-5" value="取消車次" style="ellipse;whiteSpace=wrap;html=1;" vertex="1" parent="1">
          <mxGeometry x="250" y="260" width="90" height="60" as="geometry" />
        </mxCell>
        <mxCell id="P84AbzklIG5w7HBDhzj1-6" value="修改車次信息" style="ellipse;whiteSpace=wrap;html=1;" vertex="1" parent="1">
          <mxGeometry x="250" y="340" width="90" height="60" as="geometry" />
        </mxCell>
        <mxCell id="P84AbzklIG5w7HBDhzj1-7" value="增加車次" style="ellipse;whiteSpace=wrap;html=1;" vertex="1" parent="1">
          <mxGeometry x="250" y="180" width="90" height="60" as="geometry" />
        </mxCell>
        <mxCell id="P84AbzklIG5w7HBDhzj1-8" value="退票" style="ellipse;whiteSpace=wrap;html=1;" vertex="1" parent="1">
          <mxGeometry x="480" y="240" width="90" height="60" as="geometry" />
        </mxCell>
        <mxCell id="P84AbzklIG5w7HBDhzj1-9" value="修改車票數量" style="ellipse;whiteSpace=wrap;html=1;" vertex="1" parent="1">
          <mxGeometry x="500" y="310" width="90" height="60" as="geometry" />
        </mxCell>
        <mxCell id="P84AbzklIG5w7HBDhzj1-10" value="購買車票" style="ellipse;whiteSpace=wrap;html=1;" vertex="1" parent="1">
          <mxGeometry x="480" y="170" width="90" height="60" as="geometry" />
        </mxCell>
        <mxCell id="P84AbzklIG5w7HBDhzj1-11" value="修改車次信息" style="ellipse;whiteSpace=wrap;html=1;" vertex="1" parent="1">
          <mxGeometry x="500" y="380" width="90" height="60" as="geometry" />
        </mxCell>
        <mxCell id="P84AbzklIG5w7HBDhzj1-16" style="edgeStyle=orthogonalEdgeStyle;rounded=0;orthogonalLoop=1;jettySize=auto;html=1;exitX=1;exitY=0.3333333333333333;exitDx=0;exitDy=0;exitPerimeter=0;entryX=0;entryY=0.5;entryDx=0;entryDy=0;" edge="1" parent="1" source="P84AbzklIG5w7HBDhzj1-12" target="P84AbzklIG5w7HBDhzj1-7">
          <mxGeometry relative="1" as="geometry" />
        </mxCell>
        <mxCell id="P84AbzklIG5w7HBDhzj1-12" value="售票系統管理員" style="shape=umlActor;verticalLabelPosition=bottom;verticalAlign=top;html=1;outlineConnect=0;" vertex="1" parent="1">
          <mxGeometry x="50" y="180" width="60" height="90" as="geometry" />
        </mxCell>
        <mxCell id="P84AbzklIG5w7HBDhzj1-18" style="edgeStyle=orthogonalEdgeStyle;rounded=0;orthogonalLoop=1;jettySize=auto;html=1;exitX=0;exitY=0.3333333333333333;exitDx=0;exitDy=0;exitPerimeter=0;entryX=1;entryY=0.5;entryDx=0;entryDy=0;" edge="1" parent="1" source="P84AbzklIG5w7HBDhzj1-17" target="P84AbzklIG5w7HBDhzj1-10">
          <mxGeometry relative="1" as="geometry" />
        </mxCell>
        <mxCell id="P84AbzklIG5w7HBDhzj1-17" value="乘客" style="shape=umlActor;verticalLabelPosition=bottom;verticalAlign=top;html=1;outlineConnect=0;" vertex="1" parent="1">
          <mxGeometry x="730" y="170" width="60" height="90" as="geometry" />
        </mxCell>
        <mxCell id="P84AbzklIG5w7HBDhzj1-19" value="" style="endArrow=classic;html=1;rounded=0;exitX=0;exitY=0.3333333333333333;exitDx=0;exitDy=0;exitPerimeter=0;" edge="1" parent="1" source="P84AbzklIG5w7HBDhzj1-17">
          <mxGeometry width="50" height="50" relative="1" as="geometry">
            <mxPoint x="720" y="200" as="sourcePoint" />
            <mxPoint x="465" y="80" as="targetPoint" />
          </mxGeometry>
        </mxCell>
        <mxCell id="P84AbzklIG5w7HBDhzj1-20" value="" style="endArrow=classic;html=1;rounded=0;entryX=1;entryY=0.5;entryDx=0;entryDy=0;" edge="1" parent="1" target="P84AbzklIG5w7HBDhzj1-8">
          <mxGeometry width="50" height="50" relative="1" as="geometry">
            <mxPoint x="730" y="200" as="sourcePoint" />
            <mxPoint x="660" y="290" as="targetPoint" />
          </mxGeometry>
        </mxCell>
        <mxCell id="P84AbzklIG5w7HBDhzj1-21" value="" style="endArrow=classic;html=1;rounded=0;entryX=1;entryY=0.5;entryDx=0;entryDy=0;" edge="1" parent="1" target="P84AbzklIG5w7HBDhzj1-4">
          <mxGeometry width="50" height="50" relative="1" as="geometry">
            <mxPoint x="730" y="200" as="sourcePoint" />
            <mxPoint x="590" y="120" as="targetPoint" />
          </mxGeometry>
        </mxCell>
        <mxCell id="P84AbzklIG5w7HBDhzj1-24" value="" style="endArrow=classic;html=1;rounded=0;exitX=1;exitY=0.3333333333333333;exitDx=0;exitDy=0;exitPerimeter=0;" edge="1" parent="1" source="P84AbzklIG5w7HBDhzj1-12">
          <mxGeometry width="50" height="50" relative="1" as="geometry">
            <mxPoint x="225" y="150" as="sourcePoint" />
            <mxPoint x="375" y="80" as="targetPoint" />
          </mxGeometry>
        </mxCell>
        <mxCell id="P84AbzklIG5w7HBDhzj1-25" value="" style="endArrow=classic;html=1;rounded=0;exitX=1;exitY=0.3333333333333333;exitDx=0;exitDy=0;exitPerimeter=0;" edge="1" parent="1" source="P84AbzklIG5w7HBDhzj1-12">
          <mxGeometry width="50" height="50" relative="1" as="geometry">
            <mxPoint x="110" y="275" as="sourcePoint" />
            <mxPoint x="375" y="145" as="targetPoint" />
          </mxGeometry>
        </mxCell>
        <mxCell id="P84AbzklIG5w7HBDhzj1-26" value="" style="endArrow=classic;html=1;rounded=0;exitX=1;exitY=0.3333333333333333;exitDx=0;exitDy=0;exitPerimeter=0;entryX=0;entryY=0.5;entryDx=0;entryDy=0;" edge="1" parent="1" source="P84AbzklIG5w7HBDhzj1-12" target="P84AbzklIG5w7HBDhzj1-5">
          <mxGeometry width="50" height="50" relative="1" as="geometry">
            <mxPoint x="110" y="207.5" as="sourcePoint" />
            <mxPoint x="310" y="282.5" as="targetPoint" />
          </mxGeometry>
        </mxCell>
        <mxCell id="P84AbzklIG5w7HBDhzj1-27" value="" style="endArrow=classic;html=1;rounded=0;exitX=1;exitY=0.3333333333333333;exitDx=0;exitDy=0;exitPerimeter=0;entryX=0;entryY=0.5;entryDx=0;entryDy=0;" edge="1" parent="1" source="P84AbzklIG5w7HBDhzj1-12" target="P84AbzklIG5w7HBDhzj1-6">
          <mxGeometry width="50" height="50" relative="1" as="geometry">
            <mxPoint x="100" y="230" as="sourcePoint" />
            <mxPoint x="240" y="312.5" as="targetPoint" />
          </mxGeometry>
        </mxCell>
        <mxCell id="P84AbzklIG5w7HBDhzj1-28" value="" style="endArrow=classic;html=1;rounded=0;exitX=1;exitY=0.5;exitDx=0;exitDy=0;entryX=0;entryY=0.5;entryDx=0;entryDy=0;dashed=1;dashPattern=8 8;" edge="1" parent="1" source="P84AbzklIG5w7HBDhzj1-6" target="P84AbzklIG5w7HBDhzj1-9">
          <mxGeometry width="50" height="50" relative="1" as="geometry">
            <mxPoint x="490" y="310" as="sourcePoint" />
            <mxPoint x="540" y="260" as="targetPoint" />
          </mxGeometry>
        </mxCell>
        <mxCell id="P84AbzklIG5w7HBDhzj1-29" value="&lt;font style=&quot;font-size: 12px;&quot;&gt;包含&lt;/font&gt;" style="edgeLabel;html=1;align=center;verticalAlign=middle;resizable=0;points=[];" vertex="1" connectable="0" parent="P84AbzklIG5w7HBDhzj1-28">
          <mxGeometry x="-0.0865" y="2" relative="1" as="geometry">
            <mxPoint x="2" as="offset" />
          </mxGeometry>
        </mxCell>
        <mxCell id="P84AbzklIG5w7HBDhzj1-31" value="" style="endArrow=classic;html=1;rounded=0;exitX=1;exitY=0.5;exitDx=0;exitDy=0;entryX=0;entryY=0.5;entryDx=0;entryDy=0;dashed=1;dashPattern=8 8;" edge="1" parent="1" source="P84AbzklIG5w7HBDhzj1-6" target="P84AbzklIG5w7HBDhzj1-11">
          <mxGeometry width="50" height="50" relative="1" as="geometry">
            <mxPoint x="350" y="380" as="sourcePoint" />
            <mxPoint x="510" y="350" as="targetPoint" />
          </mxGeometry>
        </mxCell>
        <mxCell id="P84AbzklIG5w7HBDhzj1-32" value="&lt;font style=&quot;font-size: 12px;&quot;&gt;包含&lt;/font&gt;" style="edgeLabel;html=1;align=center;verticalAlign=middle;resizable=0;points=[];" vertex="1" connectable="0" parent="P84AbzklIG5w7HBDhzj1-31">
          <mxGeometry x="-0.0865" y="2" relative="1" as="geometry">
            <mxPoint as="offset" />
          </mxGeometry>
        </mxCell>
      </root>
    </mxGraphModel>
  </diagram>
</mxfile>
